<svg width="24" height="24" viewBox="0 0 24 24" fill="none" xmlns="http://www.w3.org/2000/svg">
<path d="M17 16L21 12M21 12L17 8M21 12L7 12M13 16V17C13 18.6569 11.6569 20 10 20H6C4.34315 20 3 18.6569 3 17V7C3 5.34315 4.34315 4 6 4H10C11.6569 4 13 5.34315 13 7V8" stroke="#3A1E00" stroke-width="2" stroke-linecap="round" stroke-linejoin="round"/>
<path fill-rule="evenodd" clip-rule="evenodd" d="M17.7071 7.29289C17.3166 6.90237 16.6834 6.90237 16.2929 7.29289C15.9024 7.68342 15.9024 8.31658 16.2929 8.70711L18.5858 11L7 11C6.44771 11 6 11.4477 6 12C6 12.5523 6.44771 13 7 13L18.5858 13L16.2929 15.2929C15.9024 15.6834 15.9024 16.3166 16.2929 16.7071C16.6834 17.0976 17.3166 17.0976 17.7071 16.7071L21.7071 12.7071C22.0976 12.3166 22.0976 11.6834 21.7071 11.2929L17.7071 7.29289Z" fill="#EF9026"/>
</svg>
